<svg width="220" height="60" viewBox="0 0 220 60" fill="none" xmlns="http://www.w3.org/2000/svg">
<g clip-path="url(#clip0_2829_1943)">
<path d="M101.984 47.5784V47.5369L101.973 47.4953C101.4 43.5381 102.312 39.6536 103.118 36.2365C103.352 35.2186 103.585 34.2423 103.772 33.2971C103.667 32.4454 103.585 31.5314 103.562 30.5447C103.024 16.9385 98.4089 10.3743 78.8721 10.3743C59.3352 10.3743 54.6379 16.9385 54.1005 30.5447C54.1005 31.0329 54.0654 31.5003 54.0303 31.9469C53.7499 35.6133 52.745 38.2307 51.9855 40.8065C51.3896 42.8422 50.9573 44.8364 51.1793 47.298C51.1793 47.3292 51.1793 47.3603 51.191 47.3915C51.448 49.5103 52.1958 51.1929 53.5863 52.4704C55.7246 54.4542 59.3819 55.4306 65.1075 55.4306C73.5672 55.4306 77.1077 52.4185 77.1077 47.7758C77.1077 42.3748 74.0346 41.4816 74.0346 38.8227C74.0346 37.3166 74.8058 36.2884 78.8838 36.2884C82.9617 36.2884 83.6511 37.3166 83.6511 38.8227C83.6511 41.492 80.4962 42.3748 80.4962 47.7758C80.4962 52.4289 84.1068 55.4306 92.5783 55.4306C98.0818 55.4306 101.669 54.5062 103.831 52.6366C102.989 51.2448 102.347 49.5726 102.008 47.5577L101.984 47.5784ZM78.8604 29.1114C73.4737 29.1114 71.9313 28.4986 71.9313 26.3797C71.9313 23.9182 74.2449 23.2327 78.8604 23.2327C83.4759 23.2327 85.7076 23.9182 85.7076 26.3797C85.7076 28.4986 84.1653 29.1114 78.8604 29.1114Z" fill="#222222"/>
<path d="M46.5051 47.6826V47.6411C46.1546 43.8708 47.0543 41.0146 47.9073 38.2414C48.4098 36.6107 48.9005 35.032 49.1693 33.1936C48.0709 32.2277 46.6337 31.7187 44.8459 31.7187C41.6209 31.7187 38.3843 32.5392 33.687 32.5392C31.1514 32.5392 28.8378 31.4487 28.8378 29.1221C28.8378 26.3905 31.0696 25.2895 33.687 25.2895C37.6832 25.2895 40.4525 26.5878 44.6122 26.5878C48.4565 26.5878 49.6834 23.7108 49.6834 20.1586C49.6834 13.2517 44.2266 10.52 30.2166 10.4473C11.9885 10.4473 4.67383 19.5458 4.67383 34.1076C4.67383 48.6694 9.78005 55.5763 30.2984 55.5763C30.3919 55.5763 30.4971 55.5763 30.5905 55.5763C30.7308 55.5763 30.871 55.5763 31.0112 55.5763C38.8283 55.5763 44.2967 54.5169 47.697 52.0138C47.0777 50.7363 46.6687 49.3133 46.4935 47.7138V47.6723L46.5051 47.6826Z" fill="#222222"/>
<path d="M206.714 32.406C205.324 32.406 203.793 32.8214 202.099 32.8214C199.867 32.8214 198.64 31.8659 198.64 30.3599C198.64 28.106 200.568 26.2572 203.255 26.2572C204.178 26.2572 205.873 26.3922 206.714 26.3922C210.792 26.3922 213.024 24.0657 213.024 18.322C213.024 12.5783 210.488 10.4595 202.25 10.4595C194.013 10.4595 191.092 13.9493 190.098 19.4853C188.942 25.4367 188.018 26.87 185.331 26.87C182.106 26.87 181.872 24.7512 183.181 19.7553C184.945 13.8766 182.947 10.4595 174.955 10.4595C168.692 10.4595 165.397 11.9447 163.667 15.6735C163.457 16.1201 163.27 16.5771 163.107 17.086C162.347 19.5891 162.441 22.2377 162.592 24.8758C162.721 27.057 162.885 29.2381 162.639 31.305C162.616 31.6685 162.569 32.0321 162.522 32.406C162.207 34.7014 161.529 37.1214 161.003 39.583C160.489 42.0446 160.127 44.5373 160.489 46.9678C160.594 47.5909 160.746 48.1622 160.91 48.7127C161.506 50.5718 162.511 52.0156 164.03 53.0854C166.367 54.7368 169.895 55.5158 174.955 55.5158C183.029 55.5158 185.95 52.5037 185.95 47.3832C185.95 42.7301 182.34 40.6113 182.34 37.2668C182.34 35.5531 183.111 34.5975 184.642 34.5975C187.107 34.5975 188.79 36.7164 188.953 43.9661C189.187 52.3064 193.802 55.5262 202.344 55.5262C211.423 55.5262 215.349 52.7218 215.349 43.9038C215.349 36.7267 212.194 32.4164 206.737 32.4164L206.714 32.406Z" fill="#222222"/>
<path d="M148.373 10.4473C139.831 10.4473 137.214 13.9372 136.221 19.4731C135.064 25.4245 134.141 26.8579 131.453 26.8579C128.229 26.8579 127.995 24.739 129.303 19.7432C131.068 13.8645 129.07 10.4473 121.077 10.4473C114.078 10.4473 110.772 12.2961 109.229 17.0843C107.839 21.6647 109.311 26.7229 108.773 31.3137C108.715 31.9888 108.622 32.6847 108.493 33.3909C107.733 37.7117 105.957 42.4479 106.612 46.9764C107.021 49.3964 107.956 51.2556 109.545 52.6162C111.858 54.6 115.551 55.5244 121.077 55.5244C129.152 55.5244 132.073 52.5123 132.073 47.3918C132.073 42.7387 128.462 40.6199 128.462 37.2755C128.462 35.5617 129.233 34.6061 130.764 34.6061C133.23 34.6061 134.912 36.725 135.076 43.9747C135.309 52.315 139.925 55.5348 148.466 55.5348C152.801 55.5348 155.945 54.8804 158.06 53.2602C157.031 51.7541 156.248 49.895 155.863 47.5996V47.558L155.851 47.5165C155.279 43.5592 156.19 39.6747 156.996 36.2576C157.195 35.4267 157.382 34.6165 157.545 33.8376C156.26 32.9132 154.694 32.4146 152.86 32.4146C151.469 32.4146 149.939 32.8301 148.244 32.8301C146.013 32.8301 144.786 31.8745 144.786 30.3685C144.786 28.1146 146.714 26.2658 149.401 26.2658C150.324 26.2658 152.019 26.4009 152.86 26.4009C155.127 26.4009 156.821 25.6738 157.884 24.0535C157.767 21.5089 157.779 18.7565 158.597 16.0248V15.9937L158.62 15.9625C158.691 15.7444 158.772 15.5159 158.854 15.2978C157.954 11.7145 155.022 10.4785 148.408 10.4785L148.373 10.4473Z" fill="#222222"/>
<path d="M78.8607 23.2437C74.2452 23.2437 71.9316 23.9292 71.9316 26.3908C71.9316 28.5096 73.474 29.1224 78.8607 29.1224C84.2473 29.1224 85.7079 28.5096 85.7079 26.3908C85.7079 23.9292 83.3944 23.2437 78.8607 23.2437Z" fill="#222222"/>
<path d="M212.183 29.3417C213.538 28.6562 214.508 27.7629 215.174 26.9528C216.869 24.8859 217.698 22.0608 217.698 18.3113C217.698 15.5485 217.289 11.5809 213.702 8.94273C211.166 7.08356 207.743 6.29419 202.251 6.29419C195.287 6.29419 190.508 8.37148 187.774 12.6195C187.423 11.7574 186.944 10.9577 186.325 10.241C184.058 7.62365 180.225 6.29419 174.932 6.29419C167.898 6.29419 163.948 8.22607 161.6 10.6669C161.121 10.0541 160.536 9.47244 159.812 8.95312C157.276 7.09395 153.853 6.30458 148.361 6.30458C141.397 6.30458 136.618 8.38186 133.895 12.6299C133.545 11.7678 133.066 10.9681 132.446 10.2514C130.18 7.63404 126.347 6.30458 121.054 6.30458C109.182 6.30458 106.039 11.8094 104.707 15.9536V15.9847L104.683 16.0159C104.683 16.047 104.672 16.0782 104.66 16.099C103.854 14.8111 102.872 13.5855 101.657 12.4741C96.9949 8.21568 89.7387 6.23187 78.8368 6.23187C64.9554 6.23187 57.4304 9.56591 53.4576 15.2577C49.8938 6.40844 36.468 6.33574 30.2401 6.30458H30.2167C20.051 6.30458 12.2806 8.91157 7.116 14.0632C2.39537 18.7683 0 25.5195 0 34.1194C0 52.3268 8.77523 59.7427 30.2985 59.7427H30.614H31.0113C37.4262 59.7427 45.068 59.1195 50.3378 55.4843C53.4459 58.2159 58.3535 59.5973 65.0606 59.5973C70.1901 59.5973 74.2331 58.6002 77.0958 56.6476C77.7268 56.2217 78.2877 55.744 78.7901 55.235C81.127 57.6239 85.2634 59.5973 92.5313 59.5973C98.8528 59.5973 103.573 58.3613 106.682 55.9205C111.414 59.6596 118.203 59.6596 121.054 59.6596C128.216 59.6596 132.178 57.5408 134.328 54.8611C137.354 58.029 142.098 59.6596 148.443 59.6596C154.028 59.6596 158.223 58.5691 161.121 56.336C165.806 59.6492 172.186 59.6596 174.932 59.6596C182.095 59.6596 186.056 57.5408 188.206 54.8611C191.232 58.029 195.976 59.6596 202.321 59.6596C214.38 59.6596 220 54.643 220 43.8827C220 35.6566 216.506 31.2112 212.183 29.3313V29.3417ZM33.6987 32.5407C38.396 32.5407 41.621 31.7202 44.8577 31.7202C46.6454 31.7202 48.0826 32.2291 49.181 33.195C48.9006 35.0438 48.4215 36.6122 47.9191 38.2428C47.0544 41.0056 46.1663 43.8619 46.5052 47.6425V47.6841V47.7256C46.6805 49.3251 47.1011 50.7481 47.7087 52.0256C44.3085 54.5287 38.84 55.5882 31.0229 55.5882C30.8827 55.5882 30.7425 55.5882 30.6023 55.5882C30.5088 55.5882 30.4037 55.5882 30.3102 55.5882C9.78012 55.5882 4.68557 48.4735 4.68557 34.1194C4.68557 19.7654 12.0002 10.4488 30.2401 10.4488C44.2384 10.5111 49.7068 13.2531 49.7068 20.1601C49.7068 23.7122 48.4799 26.5893 44.6357 26.5893C40.4759 26.5893 37.7066 25.291 33.7104 25.291C31.0931 25.291 28.8613 26.3815 28.8613 29.1235C28.8613 31.4501 31.1748 32.5407 33.7104 32.5407H33.6987ZM92.5547 55.4531C84.095 55.4531 80.4727 52.4411 80.4727 47.7983C80.4727 42.3974 83.6276 41.5042 83.6276 38.8452C83.6276 37.3392 82.8564 36.311 78.8602 36.311C74.864 36.311 74.0111 37.3392 74.0111 38.8452C74.0111 41.5146 77.0841 42.3974 77.0841 47.7983C77.0841 52.4515 73.5437 55.4531 65.0839 55.4531C59.3584 55.4531 55.7011 54.4664 53.5628 52.493C52.184 51.2155 51.4245 49.5329 51.1674 47.414C51.1674 47.3829 51.1674 47.3517 51.1557 47.3206C50.9337 44.8694 51.3661 42.8648 51.962 40.829C52.7215 38.2532 53.7264 35.6254 54.0068 31.9694C54.0419 31.5228 54.0652 31.0554 54.0769 30.5673C54.6144 16.961 59.3117 10.3968 78.8485 10.3968C98.3854 10.3968 103.001 16.961 103.538 30.5673C103.562 31.554 103.632 32.468 103.749 33.3197C103.562 34.2544 103.34 35.2412 103.094 36.259C102.288 39.6762 101.377 43.5607 101.949 47.5179V47.5595L101.961 47.601C102.3 49.6056 102.942 51.2778 103.784 52.68C101.622 54.5391 98.0348 55.4739 92.5313 55.4739L92.5547 55.4531ZM148.454 55.5258C139.913 55.5258 135.297 52.3164 135.064 43.9657C134.912 36.716 133.218 34.5972 130.752 34.5972C129.21 34.5972 128.438 35.5527 128.438 37.2665C128.438 40.6213 132.049 42.7401 132.049 47.3829C132.049 52.5138 129.128 55.5154 121.054 55.5154C115.539 55.5154 111.835 54.5911 109.521 52.6073C107.932 51.2466 106.997 49.3875 106.588 46.9674C105.922 42.4389 107.71 37.7131 108.469 33.382C108.598 32.6757 108.691 31.9798 108.75 31.3047C109.287 26.7243 107.827 21.6661 109.205 17.0753C110.748 12.2872 114.055 10.4384 121.054 10.4384C129.058 10.4384 131.056 13.8555 129.28 19.7342C127.971 24.7301 128.205 26.8489 131.43 26.8489C134.117 26.8489 135.04 25.4156 136.197 19.4642C137.202 13.9282 139.808 10.4384 148.349 10.4384C154.975 10.4384 157.907 11.6847 158.795 15.2577C158.714 15.4862 158.632 15.7043 158.562 15.9224V15.9536L158.538 15.9847C157.709 18.7164 157.697 21.4688 157.826 24.0134C156.762 25.6441 155.068 26.3608 152.801 26.3608C151.96 26.3608 150.266 26.2257 149.342 26.2257C146.655 26.2257 144.727 28.0745 144.727 30.3284C144.727 31.8344 145.954 32.79 148.186 32.79C149.88 32.79 151.411 32.3745 152.801 32.3745C154.636 32.3745 156.201 32.873 157.487 33.7974C157.323 34.5764 157.136 35.3866 156.938 36.2175C156.131 39.6346 155.22 43.5191 155.792 47.4764V47.5179L155.804 47.5595C156.19 49.8548 156.973 51.714 158.001 53.2201C155.886 54.8403 152.743 55.4947 148.408 55.4947L148.454 55.5258ZM202.333 55.5258C193.791 55.5258 189.176 52.3164 188.942 43.9657C188.79 36.716 187.096 34.5972 184.63 34.5972C183.088 34.5972 182.317 35.5527 182.317 37.2665C182.317 40.6213 185.927 42.7401 185.927 47.3829C185.927 52.5138 183.006 55.5154 174.932 55.5154C169.873 55.5154 166.344 54.7365 164.007 53.085C162.488 52.0152 161.483 50.5611 160.887 48.7123C160.712 48.1619 160.56 47.5906 160.466 46.9674C160.116 44.5266 160.466 42.0339 160.98 39.5827C161.495 37.1211 162.184 34.7011 162.499 32.4057C162.546 32.0421 162.593 31.6682 162.616 31.3047C162.862 29.2274 162.698 27.0567 162.57 24.8755C162.418 22.2374 162.324 19.5888 163.084 17.0857C163.247 16.5767 163.434 16.1094 163.645 15.6731C165.374 11.934 168.681 10.4591 174.932 10.4591C182.936 10.4591 184.934 13.8763 183.158 19.755C181.849 24.7509 182.083 26.8697 185.308 26.8697C187.996 26.8697 188.919 25.4364 190.075 19.4849C191.08 13.949 193.686 10.4591 202.228 10.4591C210.769 10.4591 213.001 12.3702 213.001 18.3217C213.001 24.2731 210.769 26.3919 206.691 26.3919C205.85 26.3919 204.156 26.2569 203.232 26.2569C200.545 26.2569 198.617 28.1057 198.617 30.3595C198.617 31.8656 199.844 32.8211 202.076 32.8211C203.77 32.8211 205.301 32.4057 206.691 32.4057C212.148 32.4057 215.303 36.716 215.303 43.893C215.303 52.7111 211.377 55.5154 202.298 55.5154L202.333 55.5258Z" fill="#222222"/>
<path d="M101.984 41.3466V41.305L101.973 41.2635C101.4 37.3062 102.312 33.4217 103.118 30.0046C103.352 28.9867 103.585 28.0104 103.772 27.0652C103.667 26.2135 103.585 25.2995 103.562 24.3128C103.024 10.7066 98.4089 4.1424 78.8721 4.1424C59.3352 4.1424 54.6379 10.7066 54.1005 24.3128C54.1005 24.801 54.0654 25.2684 54.0303 25.715C53.7499 29.3814 52.745 31.9988 51.9855 34.5746C51.3896 36.6104 50.9573 38.6045 51.1793 41.0661C51.1793 41.0973 51.1793 41.1284 51.191 41.1596C51.448 43.2784 52.1958 44.961 53.5863 46.2386C55.7246 48.2224 59.3819 49.1987 65.1075 49.1987C73.5672 49.1987 77.1077 46.1866 77.1077 41.5439C77.1077 36.143 74.0346 35.2497 74.0346 32.5908C74.0346 31.0848 74.8058 30.0565 78.8838 30.0565C82.9617 30.0565 83.6511 31.0848 83.6511 32.5908C83.6511 35.2601 80.4962 36.143 80.4962 41.5439C80.4962 46.197 84.1068 49.1987 92.5783 49.1987C98.0818 49.1987 101.669 48.2743 103.831 46.4047C102.989 45.013 102.347 43.3408 102.008 41.3258L101.984 41.3466ZM78.8604 22.8795C73.4737 22.8795 71.9313 22.2667 71.9313 20.1479C71.9313 17.6863 74.2449 17.0008 78.8604 17.0008C83.4759 17.0008 85.7076 17.6863 85.7076 20.1479C85.7076 22.2667 84.1653 22.8795 78.8604 22.8795Z" fill="white"/>
<path d="M46.5052 41.4508V41.4092C46.1547 37.639 47.0544 34.7827 47.9074 32.0095C48.4098 30.3788 48.9006 28.8001 49.1693 26.9617C48.071 25.9958 46.6337 25.4868 44.846 25.4868C41.621 25.4868 38.3843 26.3074 33.6871 26.3074C31.1515 26.3074 28.8379 25.2168 28.8379 22.8902C28.8379 20.1586 31.0697 19.0577 33.6871 19.0577C37.6832 19.0577 40.4525 20.356 44.6123 20.356C48.4566 20.356 49.6835 17.4789 49.6835 13.9268C49.6835 7.01979 44.2267 4.28816 30.2167 4.21545C12.0002 4.21545 4.69727 13.314 4.69727 27.8757C4.69727 42.4375 9.80349 49.3445 30.3219 49.3445C30.4153 49.3445 30.5205 49.3445 30.614 49.3445C30.7542 49.3445 30.8944 49.3445 31.0346 49.3445C38.8517 49.3445 44.3202 48.285 47.7204 45.7819C47.1011 44.5044 46.6922 43.0814 46.5169 41.4819V41.4404L46.5052 41.4508Z" fill="white"/>
<path d="M206.714 26.1741C205.324 26.1741 203.793 26.5896 202.099 26.5896C199.867 26.5896 198.64 25.634 198.64 24.128C198.64 21.8741 200.568 20.0253 203.255 20.0253C204.178 20.0253 205.873 20.1604 206.714 20.1604C210.792 20.1604 213.024 17.8338 213.024 12.0901C213.024 6.34643 210.488 4.2276 202.25 4.2276C194.013 4.2276 191.092 7.71744 190.098 13.2534C188.942 19.2048 188.018 20.6381 185.331 20.6381C182.106 20.6381 181.872 18.5193 183.181 13.5234C184.945 7.64473 182.947 4.2276 174.955 4.2276C168.692 4.2276 165.397 5.71286 163.667 9.44158C163.457 9.8882 163.27 10.3452 163.107 10.8541C162.347 13.3573 162.441 16.0058 162.592 18.644C162.721 20.8251 162.885 23.0063 162.639 25.0732C162.616 25.4367 162.569 25.8002 162.522 26.1741C162.207 28.4695 161.529 30.8895 161.003 33.3511C160.489 35.8127 160.127 38.3055 160.489 40.7359C160.594 41.3591 160.746 41.9303 160.91 42.4808C161.506 44.34 162.511 45.7837 164.03 46.8535C166.367 48.5049 169.895 49.2839 174.955 49.2839C183.029 49.2839 185.95 46.2718 185.95 41.1513C185.95 36.4982 182.34 34.3794 182.34 31.035C182.34 29.3212 183.111 28.3656 184.642 28.3656C187.107 28.3656 188.79 30.4845 188.953 37.7342C189.187 46.0745 193.802 49.2943 202.344 49.2943C211.423 49.2943 215.349 46.49 215.349 37.6719C215.349 30.4949 212.194 26.1845 206.737 26.1845L206.714 26.1741Z" fill="white"/>
<path d="M148.373 4.21545C139.831 4.21545 137.214 7.70529 136.221 13.2413C135.064 19.1927 134.141 20.626 131.453 20.626C128.229 20.626 127.995 18.5072 129.303 13.5113C131.068 7.63259 129.07 4.21545 121.077 4.21545C114.078 4.21545 110.772 6.06424 109.229 10.8524C107.839 15.4328 109.311 20.491 108.773 25.0818C108.715 25.7569 108.622 26.4528 108.493 27.1591C107.733 31.4798 105.957 36.216 106.612 40.7445C107.021 43.1645 107.956 45.0237 109.545 46.3843C111.858 48.3681 115.551 49.2925 121.077 49.2925C129.152 49.2925 132.073 46.2805 132.073 41.16C132.073 36.5068 128.462 34.388 128.462 31.0436C128.462 29.3298 129.233 28.3743 130.764 28.3743C133.23 28.3743 134.912 30.4931 135.076 37.7428C135.309 46.0831 139.925 49.3029 148.466 49.3029C152.801 49.3029 155.945 48.6486 158.06 47.0283C157.031 45.5223 156.248 43.6631 155.863 41.3677V41.3261L155.851 41.2846C155.279 37.3274 156.19 33.4428 156.996 30.0257C157.195 29.1948 157.382 28.3847 157.545 27.6057C156.26 26.6813 154.694 26.1827 152.86 26.1827C151.469 26.1827 149.939 26.5982 148.244 26.5982C146.013 26.5982 144.786 25.6426 144.786 24.1366C144.786 21.8828 146.714 20.034 149.401 20.034C150.324 20.034 152.019 20.169 152.86 20.169C155.127 20.169 156.821 19.4419 157.884 17.8217C157.767 15.277 157.779 12.5246 158.597 9.79296V9.7618L158.62 9.73065C158.691 9.51253 158.772 9.28403 158.854 9.06591C157.954 5.4826 155.022 4.24661 148.408 4.24661L148.373 4.21545Z" fill="white"/>
<path d="M101.984 41.3466V41.3051L101.973 41.2635C101.4 37.3063 102.312 33.4218 103.118 30.0047C103.352 28.9868 103.585 28.0105 103.772 27.0653C103.667 26.2136 103.585 25.2996 103.562 24.3129C103.024 10.7067 98.4089 4.14246 78.8721 4.14246C59.3352 4.14246 54.6379 10.7067 54.1005 24.3129C54.1005 24.801 54.0654 25.2684 54.0303 25.7151C53.7499 29.3815 52.745 31.9988 51.9855 34.5747C51.3896 36.6104 50.9573 38.6046 51.1793 41.0662C51.1793 41.0973 51.1793 41.1285 51.191 41.1597C51.448 43.2785 52.1958 44.9611 53.5863 46.2386C55.7246 48.2224 59.3819 49.1988 65.1075 49.1988C73.5672 49.1988 77.1077 46.1867 77.1077 41.544C77.1077 36.143 74.0346 35.2498 74.0346 32.5909C74.0346 31.0848 74.8058 30.0566 78.8838 30.0566C82.9617 30.0566 83.6511 31.0848 83.6511 32.5909C83.6511 35.2602 80.4962 36.143 80.4962 41.544C80.4962 46.1971 84.1068 49.1988 92.5783 49.1988C98.0818 49.1988 101.669 48.2744 103.831 46.4048C102.989 45.013 102.347 43.3408 102.008 41.3258L101.984 41.3466ZM78.8604 22.8796C73.4737 22.8796 71.9313 22.2668 71.9313 20.1479C71.9313 17.6864 74.2449 17.0008 78.8604 17.0008C83.4759 17.0008 85.7076 17.6864 85.7076 20.1479C85.7076 22.2668 84.1653 22.8796 78.8604 22.8796Z" fill="#FF5CBE" fill-opacity="0.55"/>
<path d="M46.5052 41.4508V41.4092C46.1547 37.639 47.0544 34.7827 47.9074 32.0095C48.4098 30.3788 48.9006 28.8001 49.1693 26.9617C48.071 25.9958 46.6337 25.4868 44.846 25.4868C41.621 25.4868 38.3843 26.3074 33.6871 26.3074C31.1515 26.3074 28.8379 25.2168 28.8379 22.8902C28.8379 20.1586 31.0697 19.0577 33.6871 19.0577C37.6832 19.0577 40.4525 20.356 44.6123 20.356C48.4566 20.356 49.6835 17.4789 49.6835 13.9268C49.6835 7.01979 44.2267 4.28816 30.2167 4.21545C12.0002 4.21545 4.69727 13.314 4.69727 27.8757C4.69727 42.4375 9.80349 49.3445 30.3219 49.3445C30.4153 49.3445 30.5205 49.3445 30.614 49.3445C30.7542 49.3445 30.8944 49.3445 31.0346 49.3445C38.8517 49.3445 44.3202 48.285 47.7204 45.7819C47.1011 44.5044 46.6922 43.0814 46.5169 41.4819V41.4404L46.5052 41.4508Z" fill="#FF5CBE" fill-opacity="0.55"/>
<path d="M206.714 26.1742C205.324 26.1742 203.793 26.5897 202.099 26.5897C199.867 26.5897 198.64 25.6341 198.64 24.1281C198.64 21.8743 200.568 20.0255 203.255 20.0255C204.178 20.0255 205.873 20.1605 206.714 20.1605C210.792 20.1605 213.024 17.8339 213.024 12.0902C213.024 6.34655 210.488 4.22772 202.25 4.22772C194.013 4.22772 191.092 7.71756 190.098 13.2535C188.942 19.2049 188.018 20.6383 185.331 20.6383C182.106 20.6383 181.872 18.5194 183.181 13.5236C184.945 7.64486 182.947 4.22772 174.955 4.22772C168.692 4.22772 165.397 5.71298 163.667 9.44171C163.457 9.88832 163.27 10.3453 163.107 10.8543C162.347 13.3574 162.441 16.0059 162.592 18.6441C162.721 20.8252 162.885 23.0064 162.639 25.0733C162.616 25.4368 162.569 25.8003 162.522 26.1742C162.207 28.4696 161.529 30.8897 161.003 33.3513C160.489 35.8128 160.127 38.3056 160.489 40.736C160.594 41.3592 160.746 41.9304 160.91 42.4809C161.506 44.3401 162.511 45.7838 164.03 46.8536C166.367 48.505 169.895 49.284 174.955 49.284C183.029 49.284 185.95 46.272 185.95 41.1515C185.95 36.4983 182.34 34.3795 182.34 31.0351C182.34 29.3213 183.111 28.3658 184.642 28.3658C187.107 28.3658 188.79 30.4846 188.953 37.7343C189.187 46.0746 193.802 49.2944 202.344 49.2944C211.423 49.2944 215.349 46.4901 215.349 37.672C215.349 30.495 212.194 26.1846 206.737 26.1846L206.714 26.1742Z" fill="#FF5CBE" fill-opacity="0.55"/>
<path d="M148.373 4.21545C139.831 4.21545 137.214 7.70529 136.221 13.2413C135.064 19.1927 134.141 20.626 131.453 20.626C128.229 20.626 127.995 18.5072 129.303 13.5113C131.068 7.63259 129.07 4.21545 121.077 4.21545C114.078 4.21545 110.772 6.06424 109.229 10.8524C107.839 15.4328 109.311 20.491 108.773 25.0818C108.715 25.7569 108.622 26.4528 108.493 27.1591C107.733 31.4798 105.957 36.216 106.612 40.7445C107.021 43.1645 107.956 45.0237 109.545 46.3843C111.858 48.3681 115.551 49.2925 121.077 49.2925C129.152 49.2925 132.073 46.2805 132.073 41.16C132.073 36.5068 128.462 34.388 128.462 31.0436C128.462 29.3298 129.233 28.3743 130.764 28.3743C133.23 28.3743 134.912 30.4931 135.076 37.7428C135.309 46.0831 139.925 49.3029 148.466 49.3029C152.801 49.3029 155.945 48.6486 158.06 47.0283C157.031 45.5223 156.248 43.6631 155.863 41.3677V41.3261L155.851 41.2846C155.279 37.3274 156.19 33.4428 156.996 30.0257C157.195 29.1948 157.382 28.3847 157.545 27.6057C156.26 26.6813 154.694 26.1827 152.86 26.1827C151.469 26.1827 149.939 26.5982 148.244 26.5982C146.013 26.5982 144.786 25.6426 144.786 24.1366C144.786 21.8828 146.714 20.034 149.401 20.034C150.324 20.034 152.019 20.169 152.86 20.169C155.127 20.169 156.821 19.4419 157.884 17.8217C157.767 15.277 157.779 12.5246 158.597 9.79296V9.7618L158.62 9.73065C158.691 9.51253 158.772 9.28403 158.854 9.06591C157.954 5.4826 155.022 4.24661 148.408 4.24661L148.373 4.21545Z" fill="#FF5CBE" fill-opacity="0.55"/>
<path d="M78.8607 17.0118C74.2452 17.0118 71.9316 17.6973 71.9316 20.1589C71.9316 22.2778 73.474 22.8906 78.8607 22.8906C84.2473 22.8906 85.7079 22.2778 85.7079 20.1589C85.7079 17.6973 83.3944 17.0118 78.8607 17.0118Z" fill="#222222"/>
<path d="M212.183 23.1098C213.538 22.4243 214.508 21.5311 215.174 20.7209C216.869 18.654 217.698 15.8289 217.698 12.0794C217.698 9.31662 217.289 5.34901 213.702 2.71086C211.166 0.851687 207.743 0.0623185 202.251 0.0623185C195.287 0.0623185 190.508 2.1396 187.774 6.38765C187.423 5.52558 186.944 4.72582 186.325 4.00916C184.058 1.39178 180.225 0.0623185 174.932 0.0623185C167.898 0.0623185 163.948 1.99419 161.6 4.435C161.121 3.8222 160.536 3.24056 159.812 2.72124C157.276 0.862073 153.853 0.0727049 148.361 0.0727049C141.397 0.0727049 136.618 2.14999 133.895 6.39804C133.545 5.53596 133.066 4.73621 132.446 4.01955C130.18 1.40217 126.347 0.0727049 121.054 0.0727049C109.182 0.0727049 106.039 5.57751 104.707 9.72169V9.75285L104.683 9.78401C104.683 9.81517 104.672 9.84633 104.66 9.8671C103.854 8.57919 102.872 7.35359 101.657 6.24224C96.9949 1.98381 89.7387 0 78.8368 0C64.9554 0 57.4304 3.33404 53.4576 9.0258C49.8938 0.176568 36.468 0.103864 30.2401 0.0727049H30.2167C20.051 0.0727049 12.2806 2.6797 7.116 7.83136C2.39537 12.5364 0 19.2876 0 27.8875C0 46.0949 8.77523 53.5108 30.2985 53.5108H30.614H31.0113C37.4262 53.5108 45.068 52.8877 50.3378 49.2524C53.4459 51.984 58.3535 53.3654 65.0606 53.3654C70.1901 53.3654 74.2331 52.3683 77.0958 50.4157C77.7268 49.9899 78.2877 49.5121 78.7901 49.0031C81.127 51.392 85.2634 53.3654 92.5313 53.3654C98.8528 53.3654 103.573 52.1295 106.682 49.6886C111.414 53.4278 118.203 53.4278 121.054 53.4278C128.216 53.4278 132.178 51.3089 134.328 48.6292C137.354 51.7971 142.098 53.4278 148.443 53.4278C154.028 53.4278 158.223 52.3372 161.121 50.1041C165.806 53.4174 172.186 53.4278 174.932 53.4278C182.095 53.4278 186.056 51.3089 188.206 48.6292C191.232 51.7971 195.976 53.4278 202.321 53.4278C214.38 53.4278 220 48.4111 220 37.6508C220 29.4247 216.506 24.9793 212.183 23.0994V23.1098ZM33.6987 26.3088C38.396 26.3088 41.621 25.4883 44.8577 25.4883C46.6454 25.4883 48.0826 25.9972 49.181 26.9632C48.9006 28.8119 48.4215 30.3803 47.9191 32.011C47.0544 34.7737 46.1663 37.63 46.5052 41.4107V41.4522V41.4938C46.6805 43.0933 47.1011 44.5162 47.7087 45.7937C44.3085 48.2969 38.84 49.3563 31.0229 49.3563C30.8827 49.3563 30.7425 49.3563 30.6023 49.3563C30.5088 49.3563 30.4037 49.3563 30.3102 49.3563C9.78012 49.3563 4.68557 42.2416 4.68557 27.8875C4.68557 13.5335 12.0002 4.21689 30.2401 4.21689C44.2384 4.27921 49.7068 7.02122 49.7068 13.9282C49.7068 17.4803 48.4799 20.3574 44.6357 20.3574C40.4759 20.3574 37.7066 19.0591 33.7104 19.0591C31.0931 19.0591 28.8613 20.1497 28.8613 22.8917C28.8613 25.2182 31.1748 26.3088 33.7104 26.3088H33.6987ZM92.5547 49.2213C84.095 49.2213 80.4727 46.2092 80.4727 41.5665C80.4727 36.1655 83.6276 35.2723 83.6276 32.6134C83.6276 31.1073 82.8564 30.0791 78.8602 30.0791C74.864 30.0791 74.0111 31.1073 74.0111 32.6134C74.0111 35.2827 77.0841 36.1655 77.0841 41.5665C77.0841 46.2196 73.5437 49.2213 65.0839 49.2213C59.3584 49.2213 55.7011 48.2345 53.5628 46.2611C52.184 44.9836 51.4245 43.301 51.1674 41.1822C51.1674 41.151 51.1674 41.1199 51.1557 41.0887C50.9337 38.6375 51.3661 36.6329 51.962 34.5972C52.7215 32.0213 53.7264 29.3936 54.0068 25.7376C54.0419 25.2909 54.0652 24.8236 54.0769 24.3354C54.6144 10.7292 59.3117 4.16496 78.8485 4.16496C98.3854 4.16496 103.001 10.7292 103.538 24.3354C103.562 25.3221 103.632 26.2361 103.749 27.0878C103.562 28.0226 103.34 29.0093 103.094 30.0271C102.288 33.4443 101.377 37.3288 101.949 41.286V41.3276L101.961 41.3691C102.3 43.3737 102.942 45.0459 103.784 46.4481C101.622 48.3073 98.0348 49.242 92.5313 49.242L92.5547 49.2213ZM148.454 49.294C139.913 49.294 135.297 46.0846 135.064 37.7339C134.912 30.4842 133.218 28.3653 130.752 28.3653C129.21 28.3653 128.438 29.3209 128.438 31.0346C128.438 34.3894 132.049 36.5083 132.049 41.151C132.049 46.2819 129.128 49.2836 121.054 49.2836C115.539 49.2836 111.835 48.3592 109.521 46.3754C107.932 45.0148 106.997 43.1556 106.588 40.7356C105.922 36.2071 107.71 31.4812 108.469 27.1501C108.598 26.4438 108.691 25.7479 108.75 25.0728C109.287 20.4924 107.827 15.4342 109.205 10.8434C110.748 6.05528 114.055 4.2065 121.054 4.2065C129.058 4.2065 131.056 7.62363 129.28 13.5023C127.971 18.4982 128.205 20.617 131.43 20.617C134.117 20.617 135.04 19.1837 136.197 13.2323C137.202 7.69634 139.808 4.2065 148.349 4.2065C154.975 4.2065 157.907 5.45287 158.795 9.0258C158.714 9.2543 158.632 9.47242 158.562 9.69053V9.72169L158.538 9.75285C157.709 12.4845 157.697 15.2369 157.826 17.7816C156.762 19.4122 155.068 20.1289 152.801 20.1289C151.96 20.1289 150.266 19.9939 149.342 19.9939C146.655 19.9939 144.727 21.8426 144.727 24.0965C144.727 25.6025 145.954 26.5581 148.186 26.5581C149.88 26.5581 151.411 26.1426 152.801 26.1426C154.636 26.1426 156.201 26.6412 157.487 27.5656C157.323 28.3445 157.136 29.1547 156.938 29.9856C156.131 33.4027 155.22 37.2873 155.792 41.2445V41.286L155.804 41.3276C156.19 43.623 156.973 45.4821 158.001 46.9882C155.886 48.6085 152.743 49.2628 148.408 49.2628L148.454 49.294ZM202.333 49.294C193.791 49.294 189.176 46.0846 188.942 37.7339C188.79 30.4842 187.096 28.3653 184.63 28.3653C183.088 28.3653 182.317 29.3209 182.317 31.0346C182.317 34.3894 185.927 36.5083 185.927 41.151C185.927 46.2819 183.006 49.2836 174.932 49.2836C169.873 49.2836 166.344 48.5046 164.007 46.8532C162.488 45.7834 161.483 44.3293 160.887 42.4805C160.712 41.93 160.56 41.3587 160.466 40.7356C160.116 38.2947 160.466 35.802 160.98 33.3508C161.495 30.8892 162.184 28.4692 162.499 26.1738C162.546 25.8103 162.593 25.4364 162.616 25.0728C162.862 22.9955 162.698 20.8248 162.57 18.6436C162.418 16.0055 162.324 13.3569 163.084 10.8538C163.247 10.3449 163.434 9.87749 163.645 9.44126C165.374 5.70214 168.681 4.22727 174.932 4.22727C182.936 4.22727 184.934 7.64441 183.158 13.5231C181.849 18.519 182.083 20.6378 185.308 20.6378C187.996 20.6378 188.919 19.2045 190.075 13.2531C191.08 7.71711 193.686 4.22727 202.228 4.22727C210.769 4.22727 213.001 6.13838 213.001 12.0898C213.001 18.0412 210.769 20.16 206.691 20.16C205.85 20.16 204.156 20.025 203.232 20.025C200.545 20.025 198.617 21.8738 198.617 24.1277C198.617 25.6337 199.844 26.5892 202.076 26.5892C203.77 26.5892 205.301 26.1738 206.691 26.1738C212.148 26.1738 215.303 30.4842 215.303 37.6612C215.303 46.4792 211.377 49.2836 202.298 49.2836L202.333 49.294Z" fill="#222222"/>
</g>
<defs>
<clipPath id="clip0_2829_1943">
<rect width="220" height="59.7427" fill="white"/>
</clipPath>
</defs>
</svg>
