<svg width="60" height="60" viewBox="0 0 60 60" fill="none" xmlns="http://www.w3.org/2000/svg">
<g opacity="0.6">
<path d="M49.9545 48.854C49.9545 51.4269 47.8573 53.8902 44.1595 55.7401C40.4916 57.5751 35.3896 58.7243 29.7273 58.7243C24.065 58.7243 18.963 57.5744 15.295 55.7391C11.5972 53.8889 9.5 51.4256 9.5 48.854V46.5132H49.9545V48.854Z" fill="#222222" fill-opacity="0.6" stroke="#222222" stroke-miterlimit="10"/>
<mask id="path-2-inside-1_2518_7633" fill="white">
<path d="M44.8806 38.3096C48.34 40.1631 50.4545 42.6505 50.4545 45.3856C50.4545 51.114 41.1735 55.7558 29.7273 55.7558C18.2811 55.7558 9 51.1113 9 45.3856C9 42.9115 10.731 40.6372 13.6232 38.8555"/>
</mask>
<path d="M44.8806 38.3096C48.34 40.1631 50.4545 42.6505 50.4545 45.3856C50.4545 51.114 41.1735 55.7558 29.7273 55.7558C18.2811 55.7558 9 51.1113 9 45.3856C9 42.9115 10.731 40.6372 13.6232 38.8555" fill="#777777"/>
<path d="M44.4083 39.191C47.7525 40.9828 49.4545 43.2079 49.4545 45.3856H51.4545C51.4545 42.0931 48.9276 39.3434 45.3529 37.4281L44.4083 39.191ZM49.4545 45.3856C49.4545 47.6673 47.5803 50.0013 43.9358 51.8245C40.351 53.6179 35.3287 54.7558 29.7273 54.7558V56.7558C35.572 56.7558 40.9134 55.5728 44.8306 53.6132C48.6882 51.6834 51.4545 48.8323 51.4545 45.3856H49.4545ZM29.7273 54.7558C24.1259 54.7558 19.1037 53.6173 15.5188 51.8236C11.8741 49.9999 10 47.6659 10 45.3856H8C8 48.831 10.7664 51.6821 14.6238 53.6122C18.541 55.5721 23.8824 56.7558 29.7273 56.7558V54.7558ZM10 45.3856C10 43.4167 11.3852 41.4087 14.1477 39.7069L13.0987 38.0041C10.0769 39.8656 8 42.4062 8 45.3856H10Z" fill="#222222" mask="url(#path-2-inside-1_2518_7633)"/>
<path d="M38.3344 48.4933L45.3678 46.2083V19.1907L32.4355 21.9683L38.3344 27.0922V48.4933Z" fill="white" stroke="#222222" stroke-linejoin="round"/>
<path d="M45.3667 19.1909L32.4318 21.9047L38.3334 27.0952V50.6747C38.3334 50.6747 34.7035 51.9104 30.7434 51.9104C21.6541 51.9104 14.2852 48.6587 14.2852 44.6453L14.3011 21.8541C14.3011 21.8541 14.5408 16.2002 29.5183 15.5371C42.6024 15.5371 45.3694 19.1936 45.3694 19.1936L45.3667 19.1909Z" fill="white" stroke="#222222" stroke-linejoin="round"/>
<path d="M45.3599 30.7037L38.3345 32.4241V27.9926L45.3599 26.2722V30.7037Z" fill="#222222" fill-opacity="0.2" stroke="#222222" stroke-linejoin="round"/>
<path d="M29.507 15.5347C35.7947 15.5347 42.1996 16.1445 45.3581 19.1912L32.4231 21.9049L38.3247 27.0954L38.2767 28.5255C36.8706 28.7998 33.2301 29.2925 31.7014 30.2965C30.0503 31.3831 30.487 37.21 30.2767 39.8492C30.1994 40.8212 30.2127 41.3219 28.8332 41.2527C28.4764 41.2447 27.6801 40.712 27.6801 39.8119C27.6801 39.0929 27.7653 30.8531 26.1381 30.4243C25.7999 30.3338 25.4351 30.3338 25.1368 30.3844C24.6015 30.4776 23.8691 30.7226 23.8691 32.2459V43.2341C23.8691 43.7507 23.6481 44.7361 22.5402 44.7361C21.4323 44.7361 21.1634 43.748 21.1634 43.2341V29.6573C21.1634 29.1753 20.8891 28.7385 20.455 28.5308C20.3484 28.4802 20.2339 28.4243 20.1194 28.3684C19.4989 28.0648 18.7772 28.5148 18.7772 29.2046V33.9503C18.7772 34.72 18.415 35.1354 17.7252 35.1354C17.0355 35.1354 16.6733 34.7226 16.6733 33.9503V27.7825C16.6733 26.8983 16.3298 26.0408 15.6826 25.4389C14.6253 24.4535 14.2871 23.4256 14.2871 22.1499C14.2871 17.8782 23.2166 15.5373 29.5043 15.5373L29.507 15.5347Z" fill="#222222" fill-opacity="0.2" stroke="#222222" stroke-linejoin="round"/>
<path d="M30.0942 19.5582C29.5643 19.5582 29.1036 19.2546 28.9491 18.8045C28.3419 17.0149 27.9025 15.7233 24.6268 11.425C23.7666 10.2958 23.2739 8.80975 23.2739 7.34768C23.2739 3.58732 26.3312 0.530029 30.0916 0.530029C30.2487 0.530029 30.4085 0.535355 30.5709 0.546008C34.0037 0.780364 36.7255 3.5527 36.9012 6.99082C36.9945 8.80975 36.5444 10.2478 35.4818 11.5182C32.6029 14.9616 31.2261 18.7593 31.2128 18.7965C31.053 19.2573 30.6109 19.5582 30.0942 19.5582ZM30.0942 4.91357C28.7094 4.91357 27.5802 6.04008 27.5802 7.42758C27.5802 8.81508 28.7067 9.94159 30.0942 9.94159C31.4817 9.94159 32.6083 8.81508 32.6083 7.42758C32.6083 6.04008 31.4817 4.91357 30.0942 4.91357Z" fill="white"/>
<path d="M30.0942 19.5582C29.5643 19.5582 29.1036 19.2546 28.9491 18.8045C28.3419 17.0149 27.9025 15.7233 24.6268 11.425C23.7666 10.2958 23.2739 8.80975 23.2739 7.34768C23.2739 3.58732 26.3312 0.530029 30.0916 0.530029C30.2487 0.530029 30.4085 0.535355 30.5709 0.546008C34.0037 0.780364 36.7255 3.5527 36.9012 6.99082C36.9945 8.80975 36.5444 10.2478 35.4818 11.5182C32.6029 14.9616 31.2261 18.7593 31.2128 18.7965C31.053 19.2573 30.6109 19.5582 30.0942 19.5582ZM30.0942 4.91357C28.7094 4.91357 27.5802 6.04008 27.5802 7.42758C27.5802 8.81508 28.7067 9.94159 30.0942 9.94159C31.4817 9.94159 32.6083 8.81508 32.6083 7.42758C32.6083 6.04008 31.4817 4.91357 30.0942 4.91357Z" fill="#222222" fill-opacity="0.4"/>
<path d="M30.0918 1.0626C30.2382 1.0626 30.3847 1.06792 30.5338 1.07858C33.679 1.29429 36.209 3.87221 36.3688 7.02005C36.4487 8.58865 36.1185 9.93087 35.0745 11.1799C32.1024 14.7379 30.7123 18.6207 30.7123 18.6207C30.6137 18.903 30.3554 19.0282 30.0944 19.0282C29.8175 19.0282 29.5405 18.8844 29.4553 18.634C28.8294 16.7911 28.374 15.4622 25.0531 11.1027C24.3074 10.1226 23.8094 8.75643 23.8094 7.35029C23.8094 3.88021 26.6217 1.06526 30.0944 1.06526M30.0944 10.4768C31.7775 10.4768 33.1411 9.11329 33.1411 7.43018C33.1411 5.74707 31.7775 4.38354 30.0944 4.38354C28.4113 4.38354 27.0478 5.74707 27.0478 7.43018C27.0478 9.11329 28.4113 10.4768 30.0944 10.4768ZM30.0944 0C26.0411 0 22.7441 3.29698 22.7441 7.35029C22.7441 8.92687 23.2768 10.5301 24.2062 11.7498C27.4286 15.9789 27.8574 17.2385 28.4486 18.9776C28.675 19.646 29.3381 20.0934 30.0971 20.0934C30.8561 20.0934 31.4819 19.654 31.7189 18.9723C31.7296 18.943 33.0851 15.2225 35.8921 11.8643C37.0452 10.4848 37.5326 8.92953 37.4341 6.96679C37.245 3.25703 34.3102 0.26898 30.6084 0.018644C30.438 0.00799139 30.2649 0 30.0944 0ZM30.0944 9.41156C29.0025 9.41156 28.1131 8.52207 28.1131 7.43018C28.1131 6.33829 29.0025 5.4488 30.0944 5.4488C31.1863 5.4488 32.0758 6.33829 32.0758 7.43018C32.0758 8.52207 31.1863 9.41156 30.0944 9.41156Z" fill="#222222"/>
<path d="M45.3599 40.1151L38.3345 41.8355V37.404L45.3599 35.6836V40.1151Z" fill="#222222" fill-opacity="0.2" stroke="#222222" stroke-linejoin="round"/>
</g>
</svg>
