<svg width="100" height="100" viewBox="0 0 100 100" fill="none" xmlns="http://www.w3.org/2000/svg">
<g opacity="0.6">
<path d="M14.6792 53.4189C20.5691 59.1318 25.8573 60.7751 30.725 59.2411C30.725 59.2411 32.5315 58.9215 32.8082 60.9176C33.0516 62.6646 31.1483 63.0865 31.1483 63.0865C31.1483 63.0865 20.796 65.853 12.6057 56.689C12.6057 56.689 13.6791 55.0415 14.6792 53.4189Z" fill="#222222"/>
<path d="M12.3029 57.068C10.9943 57.1842 10.7107 55.7124 10.7107 55.7124C10.1021 55.8508 9.19884 56.0721 8.21258 55.3099C7.22631 54.5477 6.82932 52.7412 6.82932 52.7412C5.74208 52.5005 5.07813 50.5612 5.07813 50.5612C5.07813 50.5612 4.45149 49.2844 5.50138 48.5513C6.15013 48.099 6.46966 48.4379 6.46966 48.4379C6.46966 48.4379 6.49872 47.9731 7.2443 47.2013C7.45125 46.9825 7.72077 46.8331 8.01593 46.7734C8.31109 46.7137 8.61745 46.7467 8.89313 46.8679C9.93749 45.5441 10.968 45.4487 11.8215 45.8872C12.675 46.3257 13.2532 47.8168 13.2532 47.8168C13.2532 47.8168 14.6046 47.8168 15.5563 49.2955C16.508 50.7742 14.9753 52.6734 14.9753 52.6734C14.9753 52.6734 15.6296 52.6153 15.7389 53.5034C15.8066 54.0664 15.6006 54.8161 14.422 55.9019C13.1868 57.0404 12.3029 57.068 12.3029 57.068Z" fill="white" stroke="#222222" stroke-width="0.8" stroke-linejoin="round"/>
<path d="M11.2211 53.6652C11.2211 53.6652 10.6374 52.246 11.5103 50.9277Z" fill="white"/>
<path d="M11.2211 53.6652C11.2211 53.6652 10.6374 52.246 11.5103 50.9277" stroke="#222222" stroke-width="0.8" stroke-miterlimit="10" stroke-linecap="round"/>
<path d="M13.7984 50.3011C13.7984 50.3011 11.5713 51.6401 10.8686 50.5598C9.82014 48.9469 13.252 47.8168 13.252 47.8168" fill="white"/>
<path d="M13.7984 50.3011C13.7984 50.3011 11.5713 51.6401 10.8686 50.5598C9.82014 48.9469 13.252 47.8168 13.252 47.8168" stroke="#222222" stroke-width="0.8" stroke-miterlimit="10" stroke-linecap="round"/>
<path d="M8.89171 46.8679C8.89171 46.8679 8.42832 47.7753 8.48504 48.6468C8.5791 50.0715 9.1988 50.943 9.90841 50.6387C10.618 50.3344 10.6982 49.3509 11.0731 48.3369" fill="white"/>
<path d="M8.89171 46.8679C8.89171 46.8679 8.42832 47.7753 8.48504 48.6468C8.5791 50.0715 9.1988 50.943 9.90841 50.6387C10.618 50.3344 10.6982 49.3509 11.0731 48.3369" stroke="#222222" stroke-width="0.8" stroke-miterlimit="10" stroke-linecap="round"/>
<path d="M6.46818 48.4379C6.433 49.0017 6.51446 49.5668 6.70748 50.0978C7.18055 51.4464 7.93994 52.0482 8.55272 51.5779C9.1655 51.1075 8.9525 50.2541 8.9525 50.2541" stroke="#222222" stroke-width="0.8" stroke-miterlimit="10"/>
<path d="M6.82642 52.7412C8.0589 52.1879 7.4378 51.3579 7.4378 51.3579Z" fill="white"/>
<path d="M6.82642 52.7412C8.0589 52.1879 7.4378 51.3579 7.4378 51.3579" stroke="#222222" stroke-width="0.8" stroke-miterlimit="10"/>
<path d="M9.23755 52.6706C9.23755 52.6706 10.2722 52.2349 10.9652 52.6305Z" fill="white"/>
<path d="M9.23755 52.6706C9.23755 52.6706 10.2722 52.2349 10.9652 52.6305" stroke="#222222" stroke-width="0.8" stroke-miterlimit="10" stroke-linecap="round"/>
<path d="M10.4136 55.7788C10.4136 55.7788 12.0513 55.4523 13.1801 54.52" stroke="#222222" stroke-width="0.8" stroke-miterlimit="10" stroke-linecap="round"/>
<path d="M42.0333 91.0867C41.8332 89.5524 41.3701 86.1498 48.4147 80.4332L42.802 80C37.9407 83.3474 36.7609 90.0943 37.0838 91.4679L36.7688 91.6554C36.7688 91.6554 34.6012 86.9784 30.9954 86.9784C26.4271 86.9784 26.2239 92.0193 26.2239 92.0193C26.2239 92.0193 25.9955 95.08 26.8635 98.188L45.6091 98.3691C45.6091 98.3691 48.6667 91.1103 42.0333 91.0867Z" fill="#222222"/>
<path d="M27.4211 97.5375C27.4211 97.5375 25.8332 90.6473 28.0512 89.3587C28.0512 89.3587 31.2821 88.3615 30.6645 97.5375H27.4211Z" fill="white"/>
<path d="M36.7735 92.6793C36.4679 89.9919 35.1636 88.7128 35.1636 88.7128" stroke="white" stroke-width="0.8" stroke-miterlimit="10" stroke-linecap="round"/>
<path d="M36.7734 91.6554C36.7734 91.6554 37.9785 90.8914 39.2292 92.0996" stroke="white" stroke-width="0.8" stroke-miterlimit="10" stroke-linecap="round"/>
<path d="M57.501 79.6943C57.501 79.6943 57.4254 84.6107 63.4319 85.4015C69.4384 86.1923 69.4809 83.3773 69.4809 83.3773C69.4809 83.3773 66.7273 84.4028 66.7273 89.62C66.7273 90.4754 67.0298 94.6814 70.7222 95.1603C76.3774 95.8943 78.3244 92.1672 78.3244 88.6749V78.1931C78.3244 78.1931 78.2646 75.2174 74.1847 75.2174C70.3363 75.2174 69.892 79.6754 69.892 79.6754C69.892 79.6754 67.9135 82.0383 64.9945 81.687C63.2617 81.4759 61.7196 80.6395 61.6644 79.1351L57.501 79.6943Z" fill="#222222"/>
<path d="M71.9683 77.3677C71.9683 77.3677 70.6341 79.3147 67.2268 80.9309" stroke="white" stroke-width="0.8" stroke-miterlimit="10" stroke-linecap="round"/>
<path d="M70.1219 83.7269C70.1219 83.7269 68.9972 85.0108 66.4106 85.8803" stroke="white" stroke-width="0.8" stroke-miterlimit="10" stroke-linecap="round"/>
<path d="M69.1123 87.1658C69.1123 87.1658 70.5773 88.8434 73.2285 87.6557" stroke="white" stroke-width="0.8" stroke-linecap="round" stroke-linejoin="round"/>
<path d="M68.7532 90.1855C68.7532 90.1855 70.2182 91.8648 72.8694 90.677" stroke="white" stroke-width="0.8" stroke-linecap="round" stroke-linejoin="round"/>
<path d="M22.3833 29.6682C22.3833 29.6682 32.4672 32.4679 42.2925 33.5413C52.1178 34.6147 62.8034 33.8775 62.8034 33.8775V79.4654C62.8034 79.4654 50.0415 81.9207 40.0032 81.2443C30.2333 80.5873 22.3833 76.6962 22.3833 76.6962V29.6682Z" fill="#DEDEDE" stroke="#222222" stroke-linejoin="round"/>
<path d="M62.8034 33.8775L81.5687 19.973L22.3833 29.6683C22.3833 29.6683 36.1508 35.2082 62.8034 33.8775Z" fill="#DEDEDE" stroke="#222222" stroke-linejoin="round"/>
<path d="M81.714 19.973L62.9487 33.8775V79.4641L81.714 61.562V19.973Z" fill="white" stroke="#222222" stroke-linejoin="round"/>
<path d="M81.1481 21.1169L63.4299 34.0836L63.542 78.2316L81.1481 61.3171V21.1169Z" fill="#F2F2F2"/>
<path d="M81.5686 34.9675L62.8047 51.1724V63.7766L81.5686 45.8731V34.9675Z" fill="#A3A3A3" stroke="#222222" stroke-linejoin="round"/>
<path d="M53.8739 62.4484C53.6637 62.2382 53.323 62.2382 53.1129 62.4484C52.9028 62.6585 52.9028 62.9992 53.1129 63.2093L54.6984 64.7949C54.9086 65.005 55.2493 65.005 55.4594 64.7949C55.6695 64.5847 55.6695 64.244 55.4594 64.0339L53.8739 62.4484Z" fill="white"/>
<path d="M49.9278 65.5249C50.138 65.3147 50.138 64.974 49.9278 64.7639C49.7177 64.5538 49.377 64.5538 49.1669 64.7639L47.5814 66.3494C47.3712 66.5596 47.3712 66.9003 47.5813 67.1104C47.7915 67.3205 48.1322 67.3205 48.3423 67.1104L49.9278 65.5249Z" fill="#A3A3A3"/>
<path d="M50.589 38.8404C50.7991 38.6303 50.7991 38.2896 50.589 38.0794C50.3788 37.8693 50.0381 37.8693 49.828 38.0795L48.2425 39.665C48.0324 39.8751 48.0323 40.2158 48.2425 40.4259C48.4526 40.6361 48.7933 40.6361 49.0034 40.4259L50.589 38.8404Z" fill="#A3A3A3"/>
<path d="M25.2691 61.7487C25.059 61.5385 24.7183 61.5385 24.5082 61.7487C24.298 61.9588 24.298 62.2995 24.5082 62.5096L26.0937 64.0952C26.3038 64.3053 26.6445 64.3053 26.8546 64.0952C27.0648 63.885 27.0648 63.5443 26.8547 63.3342L25.2691 61.7487Z" fill="white"/>
<path d="M29.1532 35.6203C28.9431 35.8304 28.9431 36.1711 29.1532 36.3812C29.3633 36.5914 29.704 36.5914 29.9142 36.3812L31.4997 34.7957C31.7098 34.5856 31.7098 34.2449 31.4997 34.0347C31.2895 33.8246 30.9489 33.8246 30.7387 34.0347L29.1532 35.6203Z" fill="#A3A3A3"/>
<path d="M26.4183 40.2958C26.8263 40.2958 27.157 39.9651 27.157 39.5571C27.157 39.1492 26.8263 38.8185 26.4183 38.8185C26.0104 38.8185 25.6797 39.1492 25.6797 39.5571C25.6797 39.9651 26.0104 40.2958 26.4183 40.2958Z" fill="white"/>
<path d="M39.84 43.1592C40.2479 43.1592 40.5786 42.8285 40.5786 42.4205C40.5786 42.0126 40.2479 41.6819 39.84 41.6819C39.432 41.6819 39.1013 42.0126 39.1013 42.4205C39.1013 42.8285 39.432 43.1592 39.84 43.1592Z" fill="white"/>
<path d="M25.681 58.1688C26.089 58.1688 26.4197 57.8381 26.4197 57.4302C26.4197 57.0222 26.089 56.6915 25.681 56.6915C25.2731 56.6915 24.9424 57.0222 24.9424 57.4302C24.9424 57.8381 25.2731 58.1688 25.681 58.1688Z" fill="#A3A3A3"/>
<path d="M37.5682 36.5712C37.3581 36.361 37.0174 36.361 36.8073 36.5712C36.5971 36.7813 36.5971 37.122 36.8072 37.3321L38.3928 38.9177C38.6029 39.1278 38.9436 39.1278 39.1537 38.9177C39.3639 38.7075 39.3639 38.3668 39.1537 38.1567L37.5682 36.5712Z" fill="white"/>
<path d="M42.8707 40.4065C43.2787 40.4065 43.6094 40.0758 43.6094 39.6679C43.6094 39.2599 43.2787 38.9292 42.8707 38.9292C42.4628 38.9292 42.1321 39.2599 42.1321 39.6679C42.1321 40.0758 42.4628 40.4065 42.8707 40.4065Z" fill="white"/>
<path d="M25.1915 35.3534C25.5995 35.3534 25.9302 35.0227 25.9302 34.6148C25.9302 34.2068 25.5995 33.8761 25.1915 33.8761C24.7836 33.8761 24.4529 34.2068 24.4529 34.6148C24.4529 35.0227 24.7836 35.3534 25.1915 35.3534Z" fill="white"/>
<path d="M34.1554 67.3625C34.3656 67.5727 34.7063 67.5727 34.9164 67.3625C35.1265 67.1524 35.1265 66.8117 34.9164 66.6016L33.3309 65.0161C33.1207 64.8059 32.7801 64.8059 32.5699 65.016C32.3598 65.2262 32.3598 65.5669 32.5699 65.777L34.1554 67.3625Z" fill="#A3A3A3"/>
<path d="M58.2277 65.2539C58.6356 65.2539 58.9663 64.9232 58.9663 64.5153C58.9663 64.1073 58.6356 63.7766 58.2277 63.7766C57.8197 63.7766 57.489 64.1073 57.489 64.5153C57.489 64.9232 57.8197 65.2539 58.2277 65.2539Z" fill="white"/>
<path d="M52.6961 42.0175C52.486 41.8073 52.1453 41.8073 51.9352 42.0175C51.725 42.2276 51.725 42.5683 51.9352 42.7784L53.5207 44.364C53.7308 44.5741 54.0715 44.5741 54.2817 44.364C54.4918 44.1538 54.4918 43.8131 54.2817 43.603L52.6961 42.0175Z" fill="white"/>
<path d="M58.7213 39.9915C59.1293 39.9915 59.46 39.6608 59.46 39.2528C59.46 38.8449 59.1293 38.5142 58.7213 38.5142C58.3134 38.5142 57.9827 38.8449 57.9827 39.2528C57.9827 39.6608 58.3134 39.9915 58.7213 39.9915Z" fill="white"/>
<path d="M60.3373 44.3106C60.5474 44.1005 60.5474 43.7598 60.3373 43.5497C60.1271 43.3395 59.7864 43.3395 59.5763 43.5497L57.9908 45.1352C57.7807 45.3453 57.7806 45.686 57.9908 45.8961C58.2009 46.1063 58.5416 46.1063 58.7518 45.8962L60.3373 44.3106Z" fill="#A3A3A3"/>
<path d="M54.422 70.7422C54.2119 70.9523 54.2119 71.2931 54.422 71.5032C54.6322 71.7133 54.9728 71.7133 55.183 71.5032L56.7685 69.9177C56.9786 69.7075 56.9786 69.3668 56.7685 69.1567C56.5584 68.9466 56.2177 68.9466 56.0075 69.1567L54.422 70.7422Z" fill="#A3A3A3"/>
<path d="M29.9076 74.809C29.6975 75.0191 29.6975 75.3598 29.9076 75.57C30.1177 75.7801 30.4584 75.7801 30.6686 75.57L32.2541 73.9844C32.4642 73.7743 32.4642 73.4336 32.2541 73.2235C32.044 73.0133 31.7032 73.0133 31.4931 73.2235L29.9076 74.809Z" fill="white"/>
<path d="M26.9481 70.3307C27.3561 70.3307 27.6868 70 27.6868 69.5921C27.6868 69.1841 27.3561 68.8534 26.9481 68.8534C26.5402 68.8534 26.2095 69.1841 26.2095 69.5921C26.2095 70 26.5402 70.3307 26.9481 70.3307Z" fill="white"/>
<path d="M50.5016 71.1162L50.1045 71.5133C50.004 71.6138 50.0041 71.7766 50.1045 71.8771L52.0872 73.8597C52.1876 73.9602 52.3505 73.9602 52.451 73.8598L52.8481 73.4626C52.9486 73.3622 52.9486 73.1993 52.8481 73.0988L50.8655 71.1161C50.765 71.0157 50.6021 71.0157 50.5016 71.1162Z" fill="white"/>
<path d="M58.2277 75.4278C58.6356 75.4278 58.9663 75.0971 58.9663 74.6891C58.9663 74.2812 58.6356 73.9504 58.2277 73.9504C57.8197 73.9504 57.489 74.2812 57.489 74.6891C57.489 75.0971 57.8197 75.4278 58.2277 75.4278Z" fill="white"/>
<path d="M47.819 76.541L47.4219 76.1439C47.3215 76.0434 47.1585 76.0434 47.0581 76.1438L45.0754 78.1265C44.975 78.2269 44.975 78.3899 45.0754 78.4903L45.4726 78.8875C45.573 78.9879 45.7359 78.9879 45.8364 78.8874L47.819 76.9048C47.9195 76.8043 47.9195 76.6414 47.819 76.541Z" fill="white"/>
<path d="M42.0878 75.2451C42.4957 75.2451 42.8264 74.9144 42.8264 74.5065C42.8264 74.0985 42.4957 73.7678 42.0878 73.7678C41.6798 73.7678 41.3491 74.0985 41.3491 74.5065C41.3491 74.9144 41.6798 75.2451 42.0878 75.2451Z" fill="#A3A3A3"/>
<path d="M40.457 69.3469C41.6412 69.3469 42.6011 67.5509 42.6011 65.3354C42.6011 63.12 41.6412 61.324 40.457 61.324C39.2729 61.324 38.313 63.12 38.313 65.3354C38.313 67.5509 39.2729 69.3469 40.457 69.3469Z" fill="white" stroke="#222222" stroke-miterlimit="10" stroke-linecap="round"/>
<path d="M48.8448 60.2756C52.8907 60.2756 56.1705 56.9958 56.1705 52.9499C56.1705 48.904 52.8907 45.6241 48.8448 45.6241C44.7989 45.6241 41.519 48.904 41.519 52.9499C41.519 56.9958 44.7989 60.2756 48.8448 60.2756Z" fill="white" stroke="#222222" stroke-linejoin="round"/>
<path d="M41.519 52.9498L55.88 53.5778" stroke="#222222" stroke-miterlimit="10" stroke-linecap="round"/>
<path d="M42.165 52.6608L53.6668 47.4916" stroke="#222222" stroke-miterlimit="10" stroke-linecap="round"/>
<path d="M41.999 53.0854L53.5561 58.1316" stroke="#222222" stroke-miterlimit="10" stroke-linecap="round"/>
<path d="M34.3221 59.0072C38.3679 59.0072 41.6478 55.7273 41.6478 51.6814C41.6478 47.6356 38.3679 44.3557 34.3221 44.3557C30.2762 44.3557 26.9963 47.6356 26.9963 51.6814C26.9963 55.7273 30.2762 59.0072 34.3221 59.0072Z" fill="white" stroke="#222222" stroke-linejoin="round"/>
<path d="M41.3434 52.8863L27.1111 50.8695" stroke="#222222" stroke-miterlimit="10" stroke-linecap="round"/>
<path d="M41.0586 52.6041L30.3882 45.8856" stroke="#222222" stroke-miterlimit="10" stroke-linecap="round"/>
<path d="M40.8871 53.0481L28.7407 56.4371" stroke="#222222" stroke-miterlimit="10" stroke-linecap="round"/>
<path d="M28.6992 58.6268C30.1507 58.6268 31.3274 57.9455 31.3274 57.1052C31.3274 56.2649 30.1507 55.5836 28.6992 55.5836C27.2477 55.5836 26.071 56.2649 26.071 57.1052C26.071 57.9455 27.2477 58.6268 28.6992 58.6268Z" fill="#C0C0C0" stroke="#222222" stroke-miterlimit="10"/>
<path d="M51.3848 61.255C52.8363 61.255 54.013 60.5737 54.013 59.7334C54.013 58.893 52.8363 58.2118 51.3848 58.2118C49.9333 58.2118 48.7566 58.893 48.7566 59.7334C48.7566 60.5737 49.9333 61.255 51.3848 61.255Z" fill="#C0C0C0" stroke="#222222" stroke-miterlimit="10"/>
<path d="M57.8666 58.7097C58.4778 58.7097 58.9732 58.1907 58.9732 57.5505C58.9732 56.9103 58.4778 56.3914 57.8666 56.3914C57.2555 56.3914 56.76 56.9103 56.76 57.5505C56.76 58.1907 57.2555 58.7097 57.8666 58.7097Z" fill="#C0C0C0" stroke="#222222" stroke-miterlimit="10"/>
<path d="M59.8613 61.9437C60.3349 61.9437 60.7189 61.5412 60.7189 61.0446C60.7189 60.5481 60.3349 60.1455 59.8613 60.1455C59.3876 60.1455 59.0037 60.5481 59.0037 61.0446C59.0037 61.5412 59.3876 61.9437 59.8613 61.9437Z" fill="#C0C0C0" stroke="#222222" stroke-miterlimit="10"/>
<path d="M52.2271 1.88973C50.4874 1.76714 48.7491 2.14639 47.2186 2.98244C45.6881 3.81849 44.4297 5.07621 43.5928 6.60625C42.7559 8.1363 42.3757 9.87439 42.4973 11.6141C42.6189 13.3538 43.2372 15.0221 44.2789 16.4208C49.094 22.7409 49.7552 24.6678 50.6612 27.3389C50.9005 28.0416 52.1828 28.1688 52.4844 27.3181C52.4844 27.3181 54.4984 21.6883 58.8072 16.5287C60.3205 14.7181 60.8005 12.7746 60.6857 10.5005C60.5614 8.28297 59.6346 6.1864 58.0782 4.60197C56.5217 3.01755 54.442 2.05351 52.2271 1.88973ZM51.5866 15.5107C50.7133 15.5107 49.8597 15.2517 49.1336 14.7665C48.4075 14.2814 47.8416 13.5918 47.5074 12.785C47.1732 11.9782 47.0857 11.0904 47.2561 10.2339C47.4265 9.37741 47.847 8.59067 48.4645 7.97317C49.082 7.35568 49.8687 6.93516 50.7252 6.76479C51.5817 6.59442 52.4695 6.68186 53.2763 7.01605C54.0831 7.35024 54.7727 7.91616 55.2579 8.64226C55.743 9.36837 56.002 10.222 56.002 11.0953C56.002 11.6751 55.8878 12.2493 55.6659 12.785C55.444 13.3207 55.1187 13.8074 54.7087 14.2174C54.2987 14.6274 53.812 14.9527 53.2763 15.1746C52.7406 15.3965 52.1665 15.5107 51.5866 15.5107Z" fill="#A3A3A3" stroke="#222222" stroke-miterlimit="10"/>
<path d="M85.3773 55.224C80.0311 50.366 74.0831 52.972 69.9956 54.5558C69.9956 54.5558 68.5251 55.1327 67.9967 53.5474C67.5818 52.3025 69.4132 51.2817 69.4132 51.2817C69.4132 51.2817 78.6478 44.8329 86.9736 52.3025C86.9736 52.3025 86.1506 53.7771 85.3773 55.224Z" fill="#222222"/>
<path d="M82.7974 53.9071C82.7061 55.0317 83.9732 55.2655 83.9732 55.2655C83.8542 55.7897 83.6744 56.5685 84.3356 57.4095C84.9968 58.2506 88.4397 60.0737 88.4397 60.0737C88.4397 60.0737 89.5463 60.6035 90.1633 59.6961C90.5492 59.1345 90.2546 58.8661 90.2546 58.8661C90.2546 58.8661 90.6543 58.8384 91.3128 58.1925C91.4997 58.0133 91.6265 57.7808 91.6761 57.5267C91.7256 57.2726 91.6954 57.0094 91.5894 56.7732C92.7195 55.8658 92.7942 54.9833 92.4111 54.2488C92.0279 53.5143 90.7373 51.8696 89.455 51.0673C88.1727 50.265 86.5502 51.5902 86.5502 51.5902C86.5502 51.5902 86.5958 51.0272 85.8267 50.9401C85.3426 50.8847 84.7008 51.0645 83.7754 52.0882C82.8168 53.1463 82.7974 53.9071 82.7974 53.9071Z" fill="white" stroke="#222222" stroke-width="0.8" stroke-linejoin="round"/>
<path d="M83.9209 55.5227C83.9209 55.5227 84.1892 54.1118 84.9832 53.1324" stroke="#222222" stroke-width="0.8" stroke-miterlimit="10" stroke-linecap="round"/>
<path d="M91.5909 56.7677C91.5909 56.7677 90.1579 56.3762 89.552 55.0676Z" fill="white"/>
<path d="M91.5909 56.7677C91.5909 56.7677 90.1579 56.3762 89.552 55.0676" stroke="#222222" stroke-width="0.8" stroke-linecap="round" stroke-linejoin="round"/>
<path d="M90.2574 58.8606C90.2574 58.8606 88.9059 58.4207 88.3 57.1135Z" fill="white"/>
<path d="M90.2574 58.8606C90.2574 58.8606 88.9059 58.4207 88.3 57.1135" stroke="#222222" stroke-width="0.8" stroke-linecap="round" stroke-linejoin="round"/>
</g>
</svg>
